<?xml version="1.0" standalone="no"?>
<!DOCTYPE svg PUBLIC "-//W3C//DTD SVG 20010904//EN"
 "http://www.w3.org/TR/2001/REC-SVG-20010904/DTD/svg10.dtd">
<svg version="1.0" xmlns="http://www.w3.org/2000/svg"
 width="576.000000pt" height="576.000000pt" viewBox="0 0 576.000000 576.000000"
 preserveAspectRatio="xMidYMid meet">

<g transform="translate(0.000000,576.000000) scale(0.100000,-0.100000)"
fill="#000000" stroke="none">
<path d="M0 2880 l0 -2880 2880 0 2880 0 0 2880 0 2880 -2880 0 -2880 0 0
-2880z m4001 2529 c296 -75 511 -287 600 -594 20 -71 23 -102 24 -270 l0 -190
-1372 -3 -1372 -2 -34 52 c-42 66 -90 108 -159 141 -185 88 -427 31 -553 -130
-22 -28 -44 -50 -50 -49 -12 3 -8 272 5 297 6 10 10 27 10 38 0 29 37 135 72
204 132 265 356 440 653 511 50 12 229 14 1076 15 1003 1 1016 1 1100 -20z
m-2372 -960 c74 -32 108 -65 142 -135 53 -111 41 -244 -31 -358 l-30 -47 32
-27 c80 -68 149 -164 172 -242 34 -114 14 -290 -45 -401 -100 -187 -334 -278
-538 -209 -123 41 -205 123 -243 243 -27 86 -21 221 15 298 44 94 137 165 240
184 l37 7 -2 181 -3 181 -25 6 c-41 10 -31 41 25 77 28 17 69 45 92 62 23 17
49 31 58 31 24 0 28 -26 8 -56 -15 -23 -19 -53 -21 -176 -4 -161 -3 -165 49
-130 71 46 123 143 123 227 1 122 -67 189 -190 187 -100 -1 -178 -53 -226
-151 -17 -36 -22 -64 -23 -126 0 -86 14 -120 63 -146 12 -7 22 -17 22 -23 0
-15 -79 -106 -91 -106 -17 0 -60 52 -86 103 -33 67 -42 188 -19 277 58 225
299 356 495 269z m2300 -243 c42 -22 87 -81 101 -132 17 -60 8 -178 -17 -234
-11 -25 -41 -73 -67 -107 l-47 -63 36 -107 c21 -60 41 -117 45 -128 5 -11 14
-36 20 -56 11 -36 28 -58 64 -83 12 -8 17 -19 13 -30 -5 -14 -24 -16 -127 -16
-119 0 -120 0 -120 23 0 16 9 28 26 36 20 9 25 17 21 34 -5 23 -77 230 -82
235 -1 1 -37 -21 -79 -50 l-76 -52 0 -72 c0 -73 2 -79 44 -108 12 -8 17 -19
13 -30 -6 -14 -21 -16 -119 -14 -109 3 -113 4 -116 26 -2 14 2 22 12 22 34 0
36 34 34 442 l-3 403 -23 10 c-15 6 -22 17 -20 30 3 18 11 20 78 21 88 2 100
-2 100 -27 0 -10 5 -19 10 -19 6 0 10 4 10 8 0 10 85 50 115 54 43 7 126 -2
154 -16z m517 9 c37 -8 103 -64 125 -106 56 -110 53 -66 57 -969 3 -753 1
-842 -14 -905 -19 -82 -46 -139 -83 -178 -45 -49 -78 -61 -167 -62 -73 0 -85
3 -129 30 -56 35 -95 97 -122 195 -17 60 -18 128 -18 890 0 768 1 829 18 890
23 78 41 116 76 153 59 64 143 84 257 62z m-1727 -15 c39 -18 45 -19 55 -5 7
10 18 13 29 9 16 -6 17 -19 15 -113 -3 -101 -4 -106 -25 -109 -17 -3 -23 2
-23 17 0 25 -44 77 -81 96 -34 18 -110 20 -127 3 -7 -7 -12 -27 -12 -44 0 -28
11 -43 82 -106 158 -141 206 -201 233 -292 45 -152 -22 -318 -157 -385 -53
-27 -72 -31 -142 -31 -98 0 -162 26 -217 87 -47 52 -63 101 -64 194 0 66 3 81
28 117 38 58 90 89 167 101 45 8 69 17 80 31 10 14 22 19 33 14 15 -5 16 -17
11 -93 -8 -125 -13 -132 -57 -85 -22 24 -27 25 -65 15 -102 -28 -108 -169 -10
-237 86 -60 210 -27 260 69 17 32 22 59 23 112 0 63 -3 76 -34 124 -19 29 -75
88 -125 131 -100 86 -128 115 -149 157 -25 49 -27 79 -12 124 30 83 82 117
180 118 40 0 75 -6 104 -19z m-503 2 c18 -14 13 -31 -16 -52 l-30 -21 0 -387
c0 -213 3 -397 6 -408 3 -12 17 -27 30 -33 30 -13 31 -39 2 -46 -13 -3 -66 -5
-118 -3 -90 3 -95 4 -98 26 -2 14 2 22 12 22 33 0 36 36 36 430 0 392 -3 430
-35 430 -15 0 -21 31 -8 44 9 8 207 6 219 -2z m1199 -77 c0 -68 -3 -80 -17
-83 -12 -2 -21 6 -28 22 -9 25 -13 26 -80 26 l-70 0 0 -377 c0 -208 4 -383 8
-389 4 -6 17 -16 30 -23 26 -14 29 -36 6 -45 -9 -3 -60 -6 -115 -6 -84 0 -101
3 -106 17 -4 11 3 23 20 37 l27 22 0 382 0 382 -64 0 c-58 0 -66 -3 -84 -27
-13 -17 -25 -24 -36 -20 -13 5 -16 21 -16 80 0 41 3 77 7 80 4 4 122 6 262 5
l256 -3 0 -80z m478 -972 c14 -9 7 -79 -13 -110 -49 -82 -152 -119 -300 -110
-80 5 -125 15 -329 73 -135 39 -121 66 -121 -244 0 -148 3 -272 7 -275 3 -4
21 4 39 18 39 30 49 31 81 5 39 -30 127 -59 203 -66 39 -4 70 -10 70 -14 0 -4
-23 -28 -51 -55 l-50 -47 -62 6 c-78 9 -152 32 -197 63 l-35 23 -3 -266 c-1
-174 1 -271 8 -279 10 -12 169 -107 265 -159 126 -68 265 -54 277 28 3 19 8
21 68 18 35 -2 66 -5 69 -8 9 -9 -21 -85 -46 -114 -42 -50 -97 -73 -189 -78
-99 -5 -170 15 -290 84 -201 116 -206 119 -274 124 -59 5 -65 7 -68 28 -3 17
2 25 17 29 12 3 24 15 26 27 3 11 4 284 3 606 l-3 585 -25 -3 c-101 -11 -175
-127 -119 -183 18 -18 19 -23 8 -34 -28 -26 -98 -58 -113 -52 -42 16 -49 143
-12 222 45 98 138 156 261 163 88 4 171 -11 385 -71 162 -45 264 -56 326 -32
51 19 68 44 59 87 l-7 30 63 -7 c35 -4 67 -9 72 -12z m-2095 -209 c188 -78
211 -376 49 -636 -58 -92 -166 -203 -263 -268 l-76 -50 -84 0 c-70 0 -86 3
-91 17 -4 11 3 23 20 37 l27 22 0 407 0 407 -25 12 c-18 8 -25 18 -23 32 3 19
11 21 86 24 77 3 84 1 89 -18 6 -22 23 -26 40 -9 37 37 185 51 251 23z m760
-77 c3 -93 -11 -108 -57 -58 l-30 32 -148 -3 -148 -3 -3 -64 c-4 -87 2 -100
31 -72 27 24 50 27 66 7 20 -24 107 -55 160 -57 29 -1 54 -6 57 -10 3 -5 -14
-29 -38 -55 l-43 -46 -55 6 c-45 6 -92 23 -172 64 -5 2 -8 -109 -8 -247 l0
-251 160 0 c149 0 161 1 172 20 7 11 23 20 36 20 22 0 23 -2 20 -77 l-3 -78
-280 0 c-279 0 -280 0 -283 22 -2 14 3 23 17 28 12 3 23 16 26 28 3 12 4 200
3 417 l-3 395 -22 10 c-22 9 -30 34 -16 48 4 4 131 6 282 5 l276 -3 3 -78z
m1239 -93 c4 -12 -19 -40 -39 -46 -9 -3 -12 -82 -12 -309 l-1 -304 147 -3
c140 -2 148 -2 158 18 7 14 19 20 33 18 20 -3 22 -9 23 -68 1 -36 -3 -71 -9
-77 -7 -10 -73 -13 -267 -13 -232 0 -259 2 -264 17 -5 11 3 26 24 44 l30 28 0
305 c0 306 -5 356 -36 356 -17 0 -27 18 -20 36 5 12 26 14 117 12 73 -2 114
-7 116 -14z m-949 -1006 l3 -86 102 -4 102 -3 95 -56 c266 -158 386 -188 541
-139 148 47 214 133 227 294 l7 81 350 0 350 0 3 -27 c2 -14 -6 -66 -18 -115
-49 -209 -177 -372 -366 -466 -139 -70 -81 -67 -1398 -67 -827 0 -1201 3
-1238 11 -29 6 -90 29 -136 50 -215 99 -357 290 -392 526 -6 34 -7 69 -4 78 6
13 97 15 888 13 l881 -3 3 -87z m-958 -951 l0 -42 41 0 c72 0 104 -71 55 -120
-20 -20 -32 -23 -77 -21 l-54 3 -3 102 c-2 67 1 108 9 117 18 22 29 7 29 -39z
m-312 -69 l-3 -111 -50 -3 c-29 -1 -58 4 -71 13 -25 16 -38 55 -29 84 9 27 59
51 90 43 24 -6 25 -4 25 40 0 40 3 46 20 46 20 0 21 -5 18 -112z m1078 -1 c1
-59 -1 -107 -5 -108 -3 0 -27 -2 -52 -5 -81 -8 -126 53 -83 114 12 17 25 22
60 22 l44 0 0 46 c0 38 3 45 18 42 15 -3 17 -17 18 -111z m-1425 93 c10 -6 19
-17 19 -25 0 -11 -11 -13 -49 -8 -43 5 -50 3 -65 -18 -48 -68 14 -146 86 -108
15 8 23 8 31 0 20 -20 -19 -46 -69 -46 -39 0 -50 5 -75 33 -31 35 -39 94 -19
132 22 41 98 62 141 40z m2999 -10 c0 -13 -7 -20 -20 -20 -19 0 -27 20 -13 33
13 14 33 6 33 -13z m-2842 -73 c8 -7 12 -29 10 -65 l-3 -54 -42 -4 c-55 -5
-91 22 -74 54 7 12 25 24 46 28 45 8 45 24 0 24 -24 0 -35 5 -35 14 0 26 67
28 98 3z m348 -21 c3 -13 4 -40 2 -60 -3 -38 -3 -38 -51 -41 -92 -6 -119 58
-33 79 44 11 42 32 -2 28 -41 -4 -45 25 -4 30 42 5 81 -11 88 -36z m565 34
c37 0 21 -29 -18 -32 -35 -3 -38 -6 -38 -33 0 -27 3 -30 38 -33 56 -5 45 -42
-12 -42 -32 0 -71 39 -71 71 0 35 43 84 66 75 9 -3 24 -6 35 -6z m167 -19 c8
-9 12 -36 10 -65 l-3 -48 -43 -4 c-53 -5 -84 10 -80 38 3 22 15 32 62 48 37
13 26 25 -20 22 -41 -3 -43 18 -3 29 31 9 61 1 77 -20z m323 15 c66 -14 52
-119 -18 -132 -63 -12 -112 51 -83 107 11 20 47 39 65 34 6 -2 22 -6 36 -9z
m288 -30 c-4 -55 1 -67 24 -64 19 3 23 11 27 52 3 28 11 51 18 54 10 3 12 -13
10 -69 l-3 -73 -40 -3 c-56 -3 -75 17 -75 82 0 28 3 55 7 58 11 11 34 -15 32
-37z m239 15 c18 -23 12 -116 -8 -116 -11 0 -16 14 -18 53 -3 48 -5 53 -25 50
-18 -3 -23 -11 -27 -53 -4 -36 -9 -50 -20 -50 -11 0 -16 15 -18 59 -2 32 -1
64 2 71 7 18 97 7 114 -14z m160 0 c8 -9 12 -36 10 -65 l-3 -48 -40 -3 c-54
-3 -77 10 -73 42 2 19 12 29 35 37 47 16 51 26 10 26 -25 0 -37 5 -37 14 0 29
74 27 98 -3z m226 8 c9 -8 0 -14 -39 -22 -17 -4 -15 -6 12 -16 36 -14 47 -34
33 -62 -14 -25 -55 -34 -86 -20 -33 15 -21 31 22 31 41 0 37 15 -5 25 -46 10
-47 62 -1 78 17 6 51 -1 64 -14z m337 -17 c15 -38 7 -107 -11 -107 -11 0 -16
13 -18 48 -2 31 -8 50 -18 54 -23 8 -34 -8 -38 -55 -4 -47 -9 -57 -25 -47 -6
3 -11 35 -11 70 l0 64 33 3 c54 5 78 -3 88 -30z m184 -38 c0 -55 -3 -69 -15
-69 -11 0 -16 15 -18 59 -3 66 2 90 21 83 8 -2 12 -26 12 -73z m135 50 c0 -7
-12 -14 -27 -16 l-28 -3 33 -18 c27 -15 33 -23 30 -45 -5 -46 -81 -57 -96 -13
-3 9 5 12 24 9 15 -2 29 2 31 10 3 6 -2 12 -11 12 -9 0 -25 9 -36 20 -16 16
-18 25 -10 40 16 29 90 33 90 4z m158 -2 c8 -10 12 -37 10 -66 l-3 -50 -46 -2
c-59 -4 -84 13 -75 49 3 15 13 27 21 27 7 0 26 5 42 11 21 8 24 12 13 19 -7 4
-23 4 -36 0 -38 -15 -49 14 -11 30 29 12 69 3 85 -18z m-2363 4 c28 -20 24
-84 -7 -108 -12 -9 -29 -18 -36 -18 -26 0 -70 30 -76 52 -9 35 -8 43 14 66 24
25 76 29 105 8z m1707 -3 c18 -16 24 -68 10 -89 -10 -15 -47 -34 -67 -34 -24
0 -65 46 -65 72 0 13 7 34 16 46 19 27 78 30 106 5z m308 3 c0 -8 -11 -17 -24
-20 -21 -5 -25 -13 -28 -54 -2 -34 -7 -47 -18 -47 -12 0 -15 15 -16 68 l-1 67
44 0 c30 0 43 -4 43 -14z m428 -88 c16 -16 15 -25 -5 -32 -19 -8 -34 10 -26
31 6 16 15 17 31 1z m-1693 -7 c8 -14 -16 -61 -32 -61 -16 0 -17 42 -1 58 14
14 25 15 33 3z"/>
<path d="M3138 5257 c-47 -18 -36 -42 37 -81 59 -31 104 -33 136 -7 l23 18
-55 16 c-31 9 -68 28 -83 42 -15 14 -28 25 -29 24 -1 -1 -14 -6 -29 -12z"/>
<path d="M2170 5190 c0 -25 23 -73 57 -117 20 -28 31 -33 64 -33 46 0 48 8 14
40 -29 27 -55 75 -55 100 0 20 -19 30 -56 30 -18 0 -24 -5 -24 -20z"/>
<path d="M2728 5133 c-16 -3 -28 -11 -28 -19 0 -24 -30 -76 -63 -111 l-31 -33
46 0 c40 0 49 4 72 35 47 61 69 139 39 134 -4 -1 -20 -4 -35 -6z"/>
<path d="M3600 5046 c0 -55 75 -156 115 -156 43 0 45 12 11 54 -18 22 -39 58
-45 79 -7 20 -18 37 -24 37 -7 0 -22 3 -34 6 -20 5 -23 2 -23 -20z"/>
<path d="M1670 5009 c0 -30 46 -115 76 -138 31 -24 84 -29 84 -7 0 8 -4 16 -8
18 -14 6 -62 75 -62 90 0 24 -23 45 -57 52 -28 5 -33 3 -33 -15z"/>
<path d="M4100 4967 c0 -8 7 -31 15 -50 8 -20 15 -55 15 -77 0 -34 4 -42 26
-50 40 -16 44 -13 44 33 0 48 -15 104 -33 129 -19 24 -67 35 -67 15z"/>
<path d="M3150 4851 c-16 -31 -13 -40 30 -89 22 -25 43 -56 46 -69 8 -32 30
-29 42 5 13 37 -7 84 -56 135 -41 42 -47 44 -62 18z"/>
<path d="M2305 4664 c-22 -8 -53 -14 -70 -13 -16 0 -35 1 -41 0 -14 -1 -36
-49 -29 -62 9 -14 78 -11 133 7 41 13 53 23 61 47 6 16 11 32 11 33 0 7 -26 2
-65 -12z"/>
<path d="M2775 4653 c20 -81 79 -153 126 -153 35 0 37 16 6 50 -23 25 -57 90
-57 108 0 10 -33 22 -64 22 -15 0 -17 -5 -11 -27z"/>
<path d="M3620 4565 c-21 -22 -22 -27 -9 -39 21 -20 76 -36 124 -36 30 0 47 6
63 23 12 13 22 26 22 29 0 3 -27 8 -61 11 -33 4 -70 14 -82 22 -28 20 -29 19
-57 -10z"/>
<path d="M1558 3801 c-27 -14 -48 -32 -48 -38 0 -7 24 -24 53 -39 28 -14 63
-36 75 -48 56 -50 84 -155 63 -233 -13 -49 -23 -51 -94 -27 -49 16 -58 32 -32
54 8 7 15 25 15 40 0 33 -39 94 -63 98 -16 3 -17 -10 -15 -170 3 -169 4 -173
26 -183 13 -6 22 -18 22 -32 0 -23 -2 -23 -115 -23 -106 0 -115 1 -115 19 0
10 11 26 25 35 l25 16 0 185 c0 141 -3 185 -12 185 -16 0 -88 -35 -109 -52 -9
-7 -28 -37 -43 -65 -34 -68 -37 -175 -5 -239 57 -119 183 -179 322 -153 75 13
107 29 164 82 86 79 131 218 113 345 -12 85 -70 178 -148 238 -25 19 -48 33
-51 33 -3 -1 -27 -13 -53 -28z"/>
<path d="M3754 4081 c-17 -11 -36 -33 -42 -51 -10 -29 -14 -31 -42 -25 l-30 7
0 -186 c0 -107 4 -186 9 -186 29 0 164 125 217 202 68 97 70 213 5 248 -30 16
-83 12 -117 -9z"/>
<path d="M4370 4085 c0 -9 7 -18 15 -21 23 -9 18 -27 -19 -63 -29 -28 -37 -31
-54 -22 -12 6 -28 21 -36 32 -21 30 -31 18 -47 -53 -11 -51 -14 -215 -14 -858
0 -744 1 -799 18 -855 25 -79 50 -112 94 -124 71 -20 116 7 155 92 l23 52 0
840 c0 787 -1 843 -18 892 -19 55 -65 103 -98 103 -10 0 -19 -7 -19 -15z"/>
<path d="M1653 2839 c-19 -6 -39 -22 -50 -39 -19 -33 -44 -38 -63 -15 -7 8
-16 15 -21 15 -5 0 -9 -147 -9 -330 0 -181 3 -330 6 -330 7 0 71 48 105 80
157 145 245 359 210 508 -21 87 -97 134 -178 111z"/>
<path d="M1901 726 c-17 -20 -7 -44 21 -55 30 -11 50 5 46 38 -2 20 -9 27 -29
29 -14 2 -31 -4 -38 -12z"/>
<path d="M1466 722 c-11 -34 4 -53 38 -50 27 3 31 7 31 33 0 26 -4 30 -32 33
-24 2 -33 -1 -37 -16z"/>
<path d="M2544 726 c-13 -33 0 -51 36 -51 38 0 52 24 30 50 -16 19 -59 19 -66
1z"/>
<path d="M1322 681 c-11 -7 -10 -10 3 -15 19 -7 35 0 35 15 0 11 -20 12 -38 0z"/>
<path d="M1645 681 c-3 -5 -1 -12 5 -16 13 -8 50 3 50 16 0 12 -47 12 -55 0z"/>
<path d="M2393 678 c2 -7 12 -13 22 -13 10 0 20 6 23 13 2 7 -6 12 -23 12 -17
0 -25 -5 -22 -12z"/>
<path d="M2727 733 c-13 -12 -7 -52 9 -61 38 -21 80 21 54 53 -13 15 -51 20
-63 8z"/>
<path d="M3405 680 c-8 -12 20 -24 35 -15 5 3 10 10 10 16 0 12 -37 12 -45 -1z"/>
<path d="M4445 679 c-4 -6 -5 -13 -2 -16 8 -7 47 7 47 18 0 13 -37 11 -45 -2z"/>
<path d="M2074 726 c-10 -27 1 -51 25 -54 31 -5 45 11 37 42 -5 19 -13 26 -32
26 -13 0 -27 -6 -30 -14z"/>
<path d="M3781 718 c-10 -27 3 -48 30 -48 25 0 44 37 28 56 -17 21 -49 17 -58
-8z"/>
</g>
</svg>
